<svg xmlns="http://www.w3.org/2000/svg" viewBox="0 0 600 600" role="img" aria-label="Placeholder de gato"><rect width="600" height="600" rx="48" fill="#201d19"/><circle cx="300" cy="300" r="220" fill="#2d2923"/><path d="m160 270 30-150 125 88a190 190 0 0 1 70 0l125-88 30 150a190 190 0 1 1-380 0Z" fill="#d4a574"/><path d="M230 300h8m124 0h8m-95 74q25 25 50 0m-25-40v40" fill="none" stroke="#201d19" stroke-linecap="round" stroke-width="18"/><path d="m176 355-65-18m70 60-70 15m378-57 65-18m-70 60 70 15" fill="none" stroke="#201d19" stroke-linecap="round" stroke-width="12"/></svg>
